<?xml version="1.0" standalone="no"?>
<!DOCTYPE svg PUBLIC "-//W3C//DTD SVG 20010904//EN"
 "http://www.w3.org/TR/2001/REC-SVG-20010904/DTD/svg10.dtd">
<svg version="1.0" xmlns="http://www.w3.org/2000/svg"
 width="550.000000pt" height="391.000000pt" viewBox="0 0 550.000000 391.000000"
 preserveAspectRatio="xMidYMid meet">

<g transform="translate(0.000000,391.000000) scale(0.100000,-0.100000)"
fill="#000000" stroke="none">
<path d="M2744 3555 c-4 -10 14 -46 55 -105 60 -87 100 -162 101 -187 0 -15
-416 -18 -713 -6 l-167 6 0 31 c0 17 -3 48 -6 69 -6 31 -11 37 -31 37 -13 0
-25 -6 -28 -12 -2 -7 -15 -56 -30 -108 -31 -113 -70 -196 -125 -270 -22 -30
-46 -72 -52 -93 -16 -55 9 -79 91 -85 51 -4 67 -1 104 21 62 37 79 78 85 205
l5 102 811 0 c778 0 1036 -5 1036 -20 0 -20 -108 -175 -120 -173 -8 1 -86 27
-173 57 -176 62 -197 66 -197 36 0 -15 21 -30 83 -61 173 -87 326 -205 391
-303 20 -30 41 -58 46 -61 33 -20 80 42 80 106 0 61 -57 131 -143 176 -16 8
-7 20 70 94 92 87 181 141 256 154 20 4 37 12 37 19 -1 6 -47 60 -104 120
l-103 109 -62 -82 -62 -81 -419 0 -419 1 19 32 c53 85 12 146 -152 226 -124
61 -155 70 -164 46z"/>
<path d="M1202 3459 c-12 -19 -10 -26 13 -58 101 -137 160 -255 214 -427 42
-136 69 -184 101 -184 29 0 78 48 108 104 36 70 38 179 4 244 -29 55 -91 122
-162 177 -54 41 -248 165 -260 165 -3 0 -11 -10 -18 -21z"/>
<path d="M2355 3058 c-131 -139 -286 -250 -469 -333 -55 -25 -76 -40 -76 -53
0 -10 3 -21 6 -24 6 -6 125 32 223 71 84 34 214 102 346 180 111 66 142 80
219 96 27 6 25 8 -65 75 -52 38 -97 69 -100 70 -4 0 -42 -37 -84 -82z"/>
<path d="M2795 3070 c-3 -5 26 -47 66 -92 39 -46 82 -95 95 -110 l24 -28 -207
0 -208 0 50 -50 50 -50 40 15 c31 11 108 14 358 15 174 0 317 2 317 4 0 9
-111 111 -129 119 -13 6 -37 -1 -79 -22 -43 -22 -76 -31 -109 -31 -46 0 -47 1
-25 16 75 53 30 125 -121 194 -68 31 -111 38 -122 20z"/>
<path d="M2369 2848 c-26 -100 -127 -246 -180 -263 -10 -4 -19 -12 -19 -19 0
-11 38 -113 46 -124 1 -2 15 6 31 17 26 19 152 55 161 46 3 -2 -14 -34 -37
-69 -41 -62 -94 -118 -153 -161 l-28 -20 26 -43 c21 -36 30 -43 48 -38 62 17
198 44 248 49 l56 7 7 -40 c4 -22 11 -43 16 -46 13 -8 37 13 55 48 20 39 7 79
-52 157 -46 61 -64 74 -89 65 -12 -5 -9 -17 15 -65 17 -32 30 -61 30 -64 0 -3
-57 -5 -127 -5 l-127 0 90 93 c49 51 114 120 144 153 30 34 62 64 70 67 11 4
3 17 -33 51 -27 25 -53 46 -58 46 -5 0 -21 -27 -36 -60 l-26 -60 -94 0 c-54 0
-93 4 -91 9 4 12 195 188 226 208 17 12 20 19 11 29 -12 14 -102 74 -112 74
-3 0 -11 -19 -18 -42z"/>
<path d="M3523 2873 c-49 -141 -104 -230 -168 -275 l-44 -31 21 -51 c11 -28
22 -57 25 -63 7 -17 13 -16 37 6 18 16 155 56 163 47 2 -2 -15 -30 -37 -64
-39 -59 -152 -172 -171 -172 -15 0 -10 -21 16 -67 26 -43 26 -43 55 -28 29 15
171 42 250 47 44 3 44 3 51 -35 3 -20 9 -41 13 -45 13 -13 66 56 66 86 0 31
-46 110 -93 160 -34 35 -36 36 -55 23 -11 -6 -7 -21 17 -69 l30 -60 -50 -7
c-40 -6 -199 1 -199 8 0 3 184 201 243 261 l58 60 -43 43 c-23 24 -47 43 -54
43 -6 0 -22 -27 -34 -60 l-22 -60 -102 0 -101 1 95 91 c52 50 112 103 133 119
l38 28 -60 40 c-33 23 -63 41 -66 41 -3 0 -8 -8 -12 -17z"/>
<path d="M3118 2719 c-39 -15 -77 -18 -227 -19 -100 -1 -183 -6 -186 -10 -3
-5 6 -28 21 -50 20 -30 32 -39 43 -34 25 11 189 22 366 23 l160 2 -60 54 c-33
30 -62 55 -65 54 -3 -1 -26 -9 -52 -20z"/>
<path d="M4019 2008 c2 -367 -1 -648 -6 -668 -9 -33 -11 -35 -54 -35 -24 0
-56 4 -71 8 -25 7 -28 5 -28 -17 0 -17 10 -31 34 -46 34 -20 80 -68 102 -106
11 -18 14 -17 49 16 74 71 69 25 75 725 4 472 8 635 17 651 12 20 8 25 -50 63
-35 23 -65 41 -68 41 -2 0 -2 -285 0 -632z"/>
<path d="M1824 2123 c1 -526 -3 -585 -59 -857 -24 -114 -25 -136 -5 -136 15 0
75 127 104 220 22 69 66 284 66 321 0 5 23 9 50 9 l50 0 0 -167 c0 -93 -4
-174 -9 -182 -7 -10 -23 -13 -65 -8 -50 5 -56 3 -56 -13 0 -10 20 -42 44 -72
25 -29 49 -66 55 -81 6 -15 17 -27 24 -27 25 0 64 39 86 85 21 44 21 54 21
653 0 599 0 609 20 627 21 19 20 19 -26 66 l-47 48 -25 -20 c-33 -25 -113 -25
-171 1 -24 11 -46 20 -50 20 -4 0 -7 -219 -7 -487z m206 202 l0 -165 -50 0
-50 0 0 165 0 165 50 0 50 0 0 -165z m0 -400 l0 -175 -50 0 -50 0 0 175 0 175
50 0 50 0 0 -175z"/>
<path d="M3125 2575 c-37 -22 -56 -24 -227 -31 -104 -4 -188 -9 -188 -11 0 -3
12 -22 28 -44 21 -31 31 -38 47 -32 11 3 128 9 260 13 132 4 242 8 245 9 6 1
-113 121 -120 120 -3 -1 -23 -12 -45 -24z"/>
<path d="M1432 2496 c-50 -76 -49 -76 -254 -76 -86 0 -148 -4 -146 -9 2 -5 27
-35 57 -66 l53 -56 88 20 c48 12 105 21 126 21 l39 0 -2 -667 -2 -668 -173
-148 c-95 -81 -182 -157 -193 -167 -19 -20 -19 -20 65 -105 47 -47 89 -85 95
-85 5 1 54 79 109 174 54 96 113 188 131 206 l32 31 78 -121 c92 -142 140
-189 253 -242 154 -73 354 -111 667 -128 225 -12 996 -30 1282 -30 l201 0 7
29 c14 67 96 139 199 176 56 21 61 25 64 55 3 27 1 31 -15 26 -28 -8 -301 -34
-478 -45 -414 -26 -1079 -21 -1424 9 -149 14 -348 46 -420 70 l-56 18 45 1
c124 4 194 87 215 253 6 47 4 56 -11 62 -20 8 -50 -17 -90 -76 -15 -22 -67
-71 -116 -109 -89 -70 -98 -84 -75 -108 7 -8 -2 -6 -22 4 -52 26 -130 104
-157 157 l-24 47 0 671 -1 672 28 21 c15 12 38 31 51 42 l24 21 -96 92 c-53
51 -100 92 -104 92 -4 0 -27 -29 -50 -64z"/>
<path d="M3835 1975 c0 -267 2 -485 5 -485 3 0 25 15 49 33 l45 33 -3 377 c-3
367 -2 378 18 411 l21 34 -63 41 c-35 22 -65 41 -68 41 -2 0 -4 -218 -4 -485z"/>
<path d="M3120 2423 c-29 -13 -64 -14 -200 -9 -91 3 -180 8 -197 12 l-32 6 6
-133 c3 -74 7 -135 8 -137 2 -2 27 4 56 12 33 9 113 16 207 18 141 4 152 3
152 -14 0 -22 10 -22 75 0 l50 17 -1 51 c-1 45 1 52 27 67 16 9 29 21 29 26 0
15 -112 101 -130 100 -8 0 -31 -8 -50 -16z m0 -123 l0 -30 -145 0 -145 0 0 30
0 30 145 0 145 0 0 -30z"/>
<path d="M2508 2080 c-21 -30 -23 -30 -113 -30 -81 0 -95 3 -125 25 -19 14
-38 25 -42 25 -4 0 -8 -110 -8 -245 l0 -245 -34 0 c-19 0 -37 -4 -40 -9 -9
-13 41 -54 58 -48 14 6 16 -15 16 -174 0 -153 3 -185 17 -210 10 -16 21 -29
26 -29 8 0 88 57 175 123 9 7 28 -5 67 -42 58 -55 70 -59 101 -36 10 8 29 15
41 15 12 0 24 4 28 9 6 11 -21 41 -37 41 -6 0 4 10 23 23 40 27 55 65 65 166
6 68 6 73 -12 70 -23 -5 -126 -195 -120 -222 4 -15 0 -15 -36 5 -22 13 -52 36
-65 52 l-25 30 24 18 c12 9 39 23 58 29 19 6 39 15 44 19 8 8 -43 110 -56 110
-3 0 -17 -19 -31 -43 -14 -23 -34 -50 -45 -60 -20 -19 -21 -18 -51 42 -17 33
-31 63 -31 66 0 3 58 5 128 5 71 0 132 3 135 6 6 6 -4 22 -48 78 -15 19 -16
19 -48 -10 -32 -29 -33 -29 -129 -26 l-98 3 0 45 0 44 78 1 c42 1 103 4 134 8
l57 6 -31 54 -32 54 -30 -36 c-30 -36 -32 -37 -103 -37 l-73 0 0 50 0 50 58 1
c89 3 196 7 205 8 10 1 -51 91 -62 91 -4 0 -18 -11 -31 -25 -21 -22 -32 -25
-97 -25 l-73 0 0 50 0 50 145 0 c87 0 145 4 145 10 0 13 -62 100 -72 100 -4 0
-17 -13 -30 -30z m-158 -612 c12 -35 33 -84 46 -110 l24 -48 -40 -20 c-21 -11
-44 -20 -50 -20 -6 0 -10 47 -10 130 0 72 2 130 4 130 2 0 14 -28 26 -62z"/>
<path d="M3150 2084 c-33 -23 -41 -24 -213 -24 -158 0 -182 2 -217 20 -22 11
-43 20 -47 20 -4 0 -8 -129 -8 -286 l0 -286 35 6 c19 3 45 6 58 6 17 0 22 6
22 25 l0 25 211 0 211 0 -4 -93 c-4 -102 -20 -143 -71 -181 -24 -17 -46 -21
-138 -24 -60 -3 -109 -8 -109 -13 0 -5 23 -18 50 -30 29 -13 66 -39 85 -62
l35 -40 42 14 c50 16 110 60 149 109 34 42 69 168 69 248 0 47 2 53 15 42 8
-7 22 -10 30 -6 13 5 15 -18 15 -175 0 -153 3 -185 17 -210 10 -16 21 -29 27
-29 5 0 49 30 98 66 l89 66 54 -51 c58 -55 70 -59 101 -36 10 8 29 15 41 15
25 0 35 11 25 26 -4 6 -40 28 -80 49 -82 43 -129 89 -112 111 7 7 33 21 58 30
26 10 51 21 56 25 9 8 -42 109 -55 109 -4 0 -18 -19 -32 -43 -14 -23 -34 -50
-44 -60 -19 -17 -21 -16 -52 42 -17 32 -31 62 -31 65 0 3 58 6 128 6 71 0 132
3 135 6 6 6 -4 23 -47 78 -15 18 -16 18 -48 -10 -32 -28 -35 -29 -130 -26
l-98 3 0 45 0 44 78 1 c42 1 103 4 134 8 l57 6 -31 54 -32 54 -30 -36 c-30
-36 -32 -37 -103 -37 l-73 0 0 50 0 50 53 1 c98 3 212 7 215 8 6 2 -59 91 -67
91 -4 0 -18 -11 -31 -25 -21 -22 -32 -25 -97 -25 l-73 0 0 50 0 50 145 0 c87
0 145 4 145 10 0 13 -62 100 -72 100 -4 0 -17 -13 -30 -30 -21 -30 -23 -30
-113 -30 -81 0 -95 3 -125 25 -19 14 -38 25 -42 25 -4 0 -8 -110 -8 -245 0
-186 -3 -245 -12 -245 -7 0 -35 23 -63 50 -51 50 -51 51 -70 30 -16 -18 -30
-20 -117 -20 -97 0 -99 0 -96 23 3 21 7 22 121 25 64 1 117 6 117 10 0 4 -17
27 -38 51 -38 43 -40 44 -69 32 -17 -7 -53 -13 -79 -14 -46 -2 -49 -1 -52 26
l-3 27 120 0 c67 0 121 3 121 6 0 4 -16 28 -36 54 l-37 48 -33 -14 c-18 -8
-56 -14 -84 -14 -50 0 -51 1 -48 28 l3 27 153 5 152 5 -52 45 c-83 72 -79 71
-118 44z m-232 -126 c-3 -21 -8 -23 -68 -23 -60 0 -65 2 -68 23 -3 21 0 22 68
22 68 0 71 -1 68 -22z m2 -133 c0 -24 -2 -25 -70 -25 -68 0 -70 1 -70 25 0 24
2 25 70 25 68 0 70 -1 70 -25z m0 -130 c0 -24 -2 -25 -70 -25 -68 0 -70 1 -70
25 0 24 2 25 70 25 68 0 70 -1 70 -25z m580 -227 c12 -35 33 -84 46 -110 l24
-48 -40 -20 c-21 -11 -44 -20 -50 -20 -6 0 -10 47 -10 130 0 72 2 130 4 130 2
0 14 -28 26 -62z"/>
<path d="M3030 1561 c0 -5 13 -35 29 -67 15 -33 34 -76 40 -96 7 -21 19 -38
26 -38 7 0 23 21 36 47 20 42 21 49 8 72 -25 45 -139 112 -139 82z"/>
<path d="M2914 1527 c-2 -7 7 -40 21 -75 14 -34 25 -68 25 -75 0 -7 6 -22 14
-32 12 -16 16 -17 29 -6 22 18 40 77 33 106 -6 23 -88 95 -108 95 -5 0 -11 -6
-14 -13z"/>
<path d="M2775 1520 c-6 -10 51 -186 68 -208 22 -29 76 63 62 107 -6 21 -99
111 -114 111 -5 0 -12 -4 -16 -10z"/>
<path d="M2696 1133 c-8 -20 -12 -17 74 -53 140 -58 288 -156 375 -250 62 -66
112 -73 140 -20 20 39 19 69 -5 107 -38 63 -149 115 -387 182 -191 54 -190 54
-197 34z"/>
<path d="M2212 916 c3 -127 5 -148 24 -172 34 -47 71 -68 132 -75 84 -11 1097
-10 1236 1 105 8 127 13 185 42 36 18 67 38 69 44 1 6 -12 17 -30 25 -70 29
-102 72 -122 162 -5 20 -12 27 -30 27 -22 0 -23 -4 -29 -87 -4 -71 -9 -90 -25
-103 -25 -20 -291 -30 -824 -30 -426 0 -420 -2 -431 117 -6 57 -4 65 19 93 15
17 25 32 23 34 -8 6 -180 66 -190 66 -7 0 -10 -49 -7 -144z"/>
<path d="M3800 1035 c-15 -18 -19 -14 85 -96 44 -35 107 -89 141 -120 69 -64
96 -81 117 -73 18 6 35 43 43 92 11 70 -40 106 -249 176 -123 41 -120 41 -137
21z"/>
</g>
</svg>
